{"title":"Jacksons - Triumph - Vinyl rip - Japan ed. - [Flac 96kHz]","uid":7042580,"size":926912396,"categoryP":"audio","categoryS":"flac","magnet":"?xt=urn:btih:891940f2c3dacac292450e5e09b6bed2119b8c17&amp;dn=Jacksons+-+Triumph+-+Vinyl+rip+-+Japan+ed.+-+%5BFlac+96kHz%5D&amp;tr=udp%3A%2F%2Ftracker.openbittorrent.com%3A80&amp;tr=udp%3A%2F%2Fopen.demonii.com%3A1337&amp;tr=udp%3A%2F%2Ftracker.coppersurfer.tk%3A6969&amp;tr=udp%3A%2F%2Fexodus.desync.com%3A6969","seeders":0,"leechers":1,"uploader":"F.C.M.","files":-1,"time":1329606267,"description":"The Jacksons - Triumph [25Ã‚Â·3P-239]\nJapan 1st pressing vinyl (1980)\nRecord in mint condition\n\nAT 440MLa cartridge\nPro-Ject Debut III Esprit (White) turntable \nSony TA-v925EE preamp\nAdobe Audition CS5.5 recording software\n\nMore details in Rip info.txt file\n\nThis release includes a handful of pictures of the record   :o  \n\nHope you like it. Enjoy!  ;) \n\n\n--------------\n\n\nDynamic range between 14 and 17  ;D  ;D \n\n--------------------------------------------------------------------------------\nAnalyzed: The Jacksons / Triumph [Japan Vinyl: 25Ã‚Â·3P-239]\n--------------------------------------------------------------------------------\n\nDR         Peak         RMS     Duration Track\n--------------------------------------------------------------------------------\nDR16      -0.10 dB   -18.22 dB      5:58 01-Can You Feel It\nDR16      -0.10 dB   -17.81 dB      4:51 02-Lovely One\nDR15      -0.10 dB   -18.23 dB      4:30 03-Your Ways\nDR15      -0.10 dB   -17.89 dB      5:01 04-Everybody\nDR15      -0.10 dB   -17.95 dB      5:43 05-Heartbreak Hotel\nDR15      -0.10 dB   -19.85 dB      3:24 06-Time Waits For No One\nDR17      -0.10 dB   -19.05 dB      6:28 07-Walk Right Now\nDR15      -0.10 dB   -17.76 dB      4:20 08-Give It Up\nDR14      -0.10 dB   -17.69 dB      4:21 09-Wondering Who\n--------------------------------------------------------------------------------\n\nNumber of tracks:  9\nOfficial DR value: DR15\n\nSamplerate:        96000 Hz\nChannels:          2\nBits per sample:   24\nBitrate:           2724 kbps\nCodec:             FLAC\n================================================================================","torrent":{"xt":"urn:btih:891940f2c3dacac292450e5e09b6bed2119b8c17","amp;dn":"Jacksons+-+Triumph+-+Vinyl+rip+-+Japan+ed.+-+%5BFlac+96kHz%5D","amp;tr":["udp%3A%2F%2Ftracker.openbittorrent.com%3A80","udp%3A%2F%2Fopen.demonii.com%3A1337","udp%3A%2F%2Ftracker.coppersurfer.tk%3A6969","udp%3A%2F%2Fexodus.desync.com%3A6969"],"infoHash":"891940f2c3dacac292450e5e09b6bed2119b8c17","infoHashBuffer":{"type":"Buffer","data":[137,25,64,242,195,218,202,194,146,69,14,94,9,182,190,210,17,155,140,23]},"announce":[],"urlList":[]}}